<svg xmlns="http://www.w3.org/2000/svg" viewBox="0 0 255.36 75.17"><defs><style>.cls-1,.cls-11{fill:#fff;}.cls-12,.cls-2{fill:#333;}.cls-3{font-size:10px;fill:#231f20;font-family:SourceSansPro-Regular, Source Sans Pro;}.cls-4{letter-spacing:-0.01em;}.cls-5{letter-spacing:-0.02em;}.cls-6{letter-spacing:-0.02em;}.cls-7{letter-spacing:-0.01em;}.cls-8{letter-spacing:-0.01em;}.cls-9{letter-spacing:-0.02em;}.cls-10{letter-spacing:0em;}.cls-11,.cls-12{fill-rule:evenodd;}</style></defs><g id="Layer_2" data-name="Layer 2"><g id="Layer_1-2" data-name="Layer 1"><circle class="cls-1" cx="11.71" cy="54.57" r="10.78"/><path class="cls-2" d="M18.78,52h.06l1.1-.08a.45.45,0,0,0,.42-.44v-.28a.46.46,0,0,0-.42-.44l-1.1-.08a.88.88,0,0,0-.66.29l-.75-1.41a2.49,2.49,0,0,0-1.56-1.33,23.21,23.21,0,0,0-4-.19,23.37,23.37,0,0,0-4.05.19,2.45,2.45,0,0,0-1.56,1.33L5.46,51a.88.88,0,0,0-.66-.29l-1.1.08a.45.45,0,0,0-.41.44v.28a.45.45,0,0,0,.41.44L4.8,52h.06A2.59,2.59,0,0,0,3,54.39V58c0,.5.15.74.55.8v1a.73.73,0,0,0,.73.73h1A.74.74,0,0,0,6,59.76v-1H17.6v1a.74.74,0,0,0,.74.73h1a.73.73,0,0,0,.73-.73v-1c.4-.06.55-.3.55-.8V54.39A2.59,2.59,0,0,0,18.78,52ZM6.86,55.6l-2.47-.09a.57.57,0,0,1-.55-.57v-.69a.44.44,0,0,1,.54-.45l2.22.41a.87.87,0,0,1,.65.64l0,.23A.41.41,0,0,1,6.86,55.6Zm-1-3.76,1-2a1.88,1.88,0,0,1,1.19-1,28.84,28.84,0,0,1,3.75-.15,30.07,30.07,0,0,1,3.76.16h0a1.92,1.92,0,0,1,1.19,1l1,2c-.84-.09-2.59-.2-6-.2S6.67,51.75,5.83,51.84Zm14,3.1a.57.57,0,0,1-.55.57l-2.47.09a.41.41,0,0,1-.44-.52l.05-.23a.87.87,0,0,1,.65-.64l2.22-.41a.44.44,0,0,1,.54.45Z"/><path class="cls-2" d="M19.37,47.17a10.66,10.66,0,1,0,3.12,7.54,10.64,10.64,0,0,0-3.12-7.54m-7.53-4.3a11.83,11.83,0,1,1-8.37,3.46A11.8,11.8,0,0,1,11.84,42.87Z"/><circle class="cls-1" cx="181.79" cy="12.63" r="10.78"/><path class="cls-2" d="M189.46,5.23a10.65,10.65,0,1,0,3.12,7.53,10.65,10.65,0,0,0-3.12-7.53M181.93.92a11.85,11.85,0,1,1-8.37,3.47A11.81,11.81,0,0,1,181.93.92Z"/><path class="cls-2" d="M182.22,12a1,1,0,0,1-.48,0l-4.37-1.2a5.36,5.36,0,0,0-.74,2.72.3.3,0,0,0,.19.28l5.06,1.79h.2l5.06-1.79a.29.29,0,0,0,.2-.28,5.37,5.37,0,0,0-.75-2.72Z"/><path class="cls-2" d="M190.69,8.5l-8.63-2.38h-.16L173.27,8.5a.31.31,0,0,0,0,.58l8.63,2.38h.16l6.47-1.79v3.64a.88.88,0,0,0,0,1.66l-.56,3.89a.33.33,0,0,0,.07.24.29.29,0,0,0,.23.1h1.19a.27.27,0,0,0,.22-.1.26.26,0,0,0,.07-.24L189.16,15a.9.9,0,0,0,.56-.82.89.89,0,0,0-.6-.84V9.51l1.57-.43a.3.3,0,0,0,0-.58Z"/><circle class="cls-1" cx="11.92" cy="11.71" r="10.78"/><path class="cls-2" d="M19.58,4.31a10.65,10.65,0,1,0,3.12,7.53,10.59,10.59,0,0,0-3.12-7.53M12.05,0A11.85,11.85,0,1,1,3.68,3.47,11.85,11.85,0,0,1,12.05,0Z"/><polygon class="cls-2" points="9.01 8.72 7.99 8.72 6.97 8.72 6.97 9.2 7.34 9.2 7.14 13.55 7.99 13.55 8.84 13.55 8.63 9.2 9.01 9.2 9.01 8.72"/><polygon class="cls-2" points="11.79 8.72 10.77 8.72 9.75 8.72 9.75 9.2 10.13 9.2 9.92 13.55 10.77 13.55 11.62 13.55 11.41 9.2 11.79 9.2 11.79 8.72"/><polygon class="cls-2" points="14.57 8.72 13.55 8.72 12.53 8.72 12.53 9.2 12.91 9.2 12.7 13.55 13.55 13.55 14.4 13.55 14.19 9.2 14.57 9.2 14.57 8.72"/><polygon class="cls-2" points="17.36 8.72 16.34 8.72 15.32 8.72 15.32 9.2 15.7 9.2 15.49 13.55 16.34 13.55 17.19 13.55 16.98 9.2 17.36 9.2 17.36 8.72"/><polygon class="cls-2" points="18.59 16.29 18.59 15.22 17.52 15.22 17.52 14.15 12.16 14.15 6.81 14.15 6.81 15.22 5.74 15.22 5.74 16.29 4.67 16.29 4.67 17.36 12.16 17.36 19.65 17.36 19.65 16.29 18.59 16.29"/><polygon class="cls-2" points="18.76 8.12 18.76 6.27 12.16 3.67 5.56 6.27 5.56 8.12 12.16 8.12 18.76 8.12"/><circle class="cls-1" cx="126.74" cy="54.59" r="10.78"/><path class="cls-2" d="M134.4,47.2a10.65,10.65,0,1,0,3.12,7.53,10.59,10.59,0,0,0-3.12-7.53m-7.53-4.31a11.83,11.83,0,1,1-8.37,3.46A11.8,11.8,0,0,1,126.87,42.89Z"/><path class="cls-2" d="M131.12,62V47.08h-8.41V62h-1.1v.57h4.48V59.42h1.74v3.17h4.38V62ZM126,58.59h-2.38V56.22H126Zm0-4h-2.38V52.24H126Zm0-4h-2.38V48.27H126Zm4.2,8h-2.37V56.22h2.37Zm0-4h-2.37V52.24h2.37Zm0-4h-2.37V48.27h2.37Z"/><text class="cls-3" transform="translate(29.21 15.19)"><tspan class="cls-4">U</tspan><tspan x="6.35" y="0">SD</tspan><tspan class="cls-5" x="17.84" y="0">O</tspan><tspan x="24.24" y="0">T</tspan></text><text class="cls-3" transform="translate(106.87 15.19)">Non-p<tspan class="cls-4" x="26.02" y="0">r</tspan><tspan x="29.39" y="0">ofit</tspan></text><text class="cls-3" transform="translate(29.21 57.72)"><tspan class="cls-5">S</tspan><tspan class="cls-6" x="5.1" y="0">t</tspan><tspan class="cls-7" x="8.27" y="0">at</tspan><tspan x="16.41" y="0">e/</tspan><tspan class="cls-8" x="24.87" y="0">L</tspan><tspan x="29.61" y="0">o</tspan><tspan class="cls-4" x="35.03" y="0">c</tspan><tspan x="39.49" y="0">al D</tspan><tspan class="cls-5" x="55.23" y="0">O</tspan><tspan x="61.63" y="0">T</tspan></text><text class="cls-3" transform="translate(143.87 57.72)">Pri<tspan class="cls-9" x="11.59" y="0">v</tspan><tspan class="cls-7" x="16.06" y="0">at</tspan><tspan x="24.2" y="0">e Entity</tspan></text><text class="cls-3" transform="translate(199.62 15.19)">Uni<tspan class="cls-10" x="14.38" y="0">v</tspan><tspan x="19.01" y="0">e</tspan><tspan class="cls-10" x="23.97" y="0">r</tspan><tspan x="27.4" y="0">sity</tspan></text><circle class="cls-2" cx="89.72" cy="11.84" r="10.65"/><path class="cls-11" d="M90.46,15.91l2.77-2.34c.31-.31.83-.24.73.13.18-.36.78-.26.64.08.19-.37.74-.13.6.12.24-.25.8.06.34.58s-3,3-3,3c-.39-.84-1.41-1-2.12-1.55M89,7.78l-2.77,2.34c-.31.31-.82.24-.72-.13-.18.36-.79.26-.65-.08-.18.37-.74.14-.6-.12-.23.25-.8-.06-.33-.58s3-3,3-3C87.26,7.07,88.28,7.27,89,7.78Zm.74-6.59a10.66,10.66,0,0,1,9.91,6.72l-.31,0c-3,.24-4.15-1.79-5.1-2.89C92.87,3.51,90.44,4.53,88.8,5a31.4,31.4,0,0,0,4.86,2.37c-1.34,0-3.35-1.29-5-2.09a.94.94,0,0,0-1.4.47c-.49,1,2.46,1.6,3.76,2.87,2,1.91,4.91,4.73,8.13,4l1.21-.23a10.65,10.65,0,0,1-20.54,3.41l.31,0c3-.24,4.14,1.8,5.09,2.89,1.35,1.55,3.78.53,5.42.07a31.71,31.71,0,0,0-4.85-2.36c1.33,0,3.34,1.28,5,2.08A.8.8,0,0,0,92,18.11c.85-1.29-2.43-2-3.53-3-2-1.91-4.91-4.73-8.13-4l-1.21.23A10.65,10.65,0,0,1,89.72,1.19Z"/><polygon class="cls-12" points="94.02 15.39 94.03 15.39 94.03 15.39 94.02 15.39"/><path class="cls-2" d="M97.25,4.31a10.67,10.67,0,1,0,3.11,7.53,10.61,10.61,0,0,0-3.11-7.53M89.72,0a11.83,11.83,0,1,1-8.38,3.47A11.84,11.84,0,0,1,89.72,0Z"/></g></g></svg>