<?xml version="1.0" encoding="UTF-8"?>
<svg width="455px" height="79px" viewBox="0 0 455 79" version="1.1" xmlns="http://www.w3.org/2000/svg" xmlns:xlink="http://www.w3.org/1999/xlink">
    <!-- Generator: Sketch 61.2 (89653) - https://sketch.com -->
    <title>usdepartmentoftransportation</title>
    <desc>Created with Sketch.</desc>
    <g id="Page-1" stroke="none" stroke-width="1" fill="none" fill-rule="evenodd">
        <g id="usdepartmentoftransportation" fill="#FFFFFF">
            <text id="Intelligent-Transpor" font-family="Helvetica-Bold, Helvetica" font-size="20" font-weight="bold">
                <tspan x="65" y="50">Intelligent Transportation Systems</tspan>
                <tspan x="65" y="74">Joint Program Office</tspan>
            </text>
            <text id="U.S.-Department-of-T" font-family="Helvetica-Bold, Helvetica" font-size="24" font-weight="bold">
                <tspan x="65" y="23">U.S. Department of Transportation</tspan>
            </text>
            <path d="M10.8668226,46 C8.86682261,44.7 7.16682261,43.2 5.66682261,41.4 C2.56682261,37.5 0.666822606,32.8 0.0668226063,27.8 C-0.433177394,18.6 1.86682261,11.8 7.16682261,7 C10.5668226,3.9 14.6668226,3.1 18.3668226,5.2 C23.6668226,8.1 24.6668226,15.8 20.4668226,20.1 C15.8668226,24.8 9.36682261,22.8 7.56682261,32.7 C6.36682261,39.2 10.8668226,46 10.8668226,46 Z" id="Path" fill-rule="nonzero"></path>
            <path d="M49.3668226,27.2 C49.3668226,27.2 50.1668226,33 44.7668226,40.6 C41.9668226,44.1 38.2668226,46.8 34.0668226,48.4 C29.0668226,50.3 22.4668226,51.2 16.1668226,46.8 C11.8668226,43.8 12.3668226,38.2 13.4668226,35.9 C14.6668226,33.3 17.0668226,31.5 19.9668226,31 C22.7668226,30.5 25.6668226,31.4 27.6668226,33.5 C28.0668226,33.9 33.3668226,38.3 38.6668226,37.1 C45.9668226,35.5 49.3668226,27.2 49.3668226,27.2 Z" id="Path" fill-rule="nonzero"></path>
            <path d="M14.6668226,3 C14.6668226,3 18.1668226,0.3 25.3668226,-1.77635684e-15 C29.6668226,0.1 33.7668226,1.2 37.5668226,3.1 C41.8668226,5.5 47.4668226,11.2 48.5668226,17.9 C49.2668226,22 48.2668226,26.4 44.1668226,28.7 C38.7668226,32.1 30.1668226,27.6 31.1668226,20.2 C32.0668226,14.1 31.7668226,9.6 27.7668226,6.1 C22.0668226,1.2 14.6668226,3 14.6668226,3 Z" id="Path" fill-rule="nonzero"></path>
        </g>
    </g>
</svg>