<svg id="Layer_1" data-name="Layer 1" xmlns="http://www.w3.org/2000/svg" viewBox="0 0 164.2 34.3"><title>USDOT_TransportationGOV</title><path d="M13.3,31.2c4.7,2,10.4-.8,10.4-.8,9.6-5.1,8.3-13,8.3-13a9.2,9.2,0,0,1-7.2,6.3,7.8,7.8,0,0,1-3.9-.8,8.7,8.7,0,0,1-2.6-1.8,7,7,0,0,0-4.2-1.3,6.7,6.7,0,0,0-3.8,2c-3.3,4.3.9,7.9.9,7.9A5.8,5.8,0,0,0,13.3,31.2Z" style="fill:#fff"/><path d="M5.5,8a14.5,14.5,0,0,0-3,7.8C2.2,26.7,9.4,29.5,9.4,29.5a9.4,9.4,0,0,1-1.6-9.3,8.3,8.3,0,0,1,2.7-3.1,14.6,14.6,0,0,1,2.8-1.3,6.2,6.2,0,0,0,3.2-3,6.8,6.8,0,0,0,.2-4.3c-2-5-7.3-3.2-7.3-3.2A7.3,7.3,0,0,0,5.5,8Z" style="fill:#fff"/><path d="M10.4,4s6.1-4.9,15.4.8c0,0,7.3,4.8,5.6,11.2,0,0-1,5.5-6.4,4.7a6.3,6.3,0,0,1-3.6-2.3,6,6,0,0,1-1-4.3,17.1,17.1,0,0,0,.3-3.1,9.1,9.1,0,0,0-1.3-3.8,9.1,9.1,0,0,0-9-3.2" style="fill:#fff"/><text transform="translate(36.8 28.4)" style="font-size:8px;fill:#fff;font-family:ITCAvantGardeStd-Demi, ITC Avant Garde Gothic Std;font-weight:300;letter-spacing:-0.0552978515625em">U<tspan x="5" y="0" style="letter-spacing:-0.0328369140625em">.</tspan><tspan x="7.1" y="0" style="letter-spacing:-0.0296630859375em">S</tspan><tspan x="11.4" y="0" style="letter-spacing:-0.051025390625em">. </tspan><tspan x="15.4" y="0" style="letter-spacing:-0.029296875em">D</tspan><tspan x="21" y="0" style="letter-spacing:-0.035888671875em">e</tspan><tspan x="25.8" y="0" style="letter-spacing:-0.03271484375em">p</tspan><tspan x="31.1" y="0" style="letter-spacing:-0.031982421875em">a</tspan><tspan x="36.4" y="0" style="letter-spacing:-0.01025390625em">r</tspan><tspan x="39.1" y="0" style="letter-spacing:-0.0374755859375em">t</tspan><tspan x="41.5" y="0" style="letter-spacing:-0.0306396484375em">m</tspan><tspan x="49" y="0" style="letter-spacing:-0.035888671875em">e</tspan><tspan x="53.8" y="0" style="letter-spacing:-0.04248046875em">n</tspan><tspan x="58.6" y="0" style="letter-spacing:-0.051025390625em">t </tspan><tspan x="62.8" y="0" style="letter-spacing:-0.0357666015625em">o</tspan><tspan x="67.8" y="0" style="letter-spacing:-0.051025390625em">f </tspan><tspan x="71.8" y="0" style="letter-spacing:-0.0753173828125em">T</tspan><tspan x="75.1" y="0" style="letter-spacing:-0.0377197265625em">r</tspan><tspan x="77.6" y="0" style="letter-spacing:-0.032470703125em">an</tspan><tspan x="87.7" y="0" style="letter-spacing:-0.030517578125em">s</tspan><tspan x="91.3" y="0" style="letter-spacing:-0.0350341796875em">p</tspan><tspan x="96.6" y="0" style="letter-spacing:-0.0335693359375em">o</tspan><tspan x="101.6" y="0" style="letter-spacing:-0.01025390625em">r</tspan><tspan x="104.3" y="0" style="letter-spacing:-0.0443115234375em">t</tspan><tspan x="106.6" y="0" style="letter-spacing:-0.03369140625em">a</tspan><tspan x="111.9" y="0" style="letter-spacing:-0.0355224609375em">t</tspan><tspan x="114.3" y="0" style="letter-spacing:-0.0338134765625em">io</tspan><tspan x="121.2" y="0" style="letter-spacing:-0.051025390625em">n</tspan></text><text transform="translate(36.6 15.7)" style="font-size:13px;fill:#fff;font-family:ITCAvantGardeStd-Bold, ITC Avant Garde Gothic Std;font-weight:700;letter-spacing:-0.011117788461538462em">T<tspan x="6.3" y="0" style="letter-spacing:-0.002892127403846154em">r</tspan><tspan x="11" y="0" style="letter-spacing:0.0010141225961538462em">a</tspan><tspan x="20.2" y="0" style="letter-spacing:0.004206730769230769em">n</tspan><tspan x="28.5" y="0" style="letter-spacing:0.004995492788461538em">s</tspan><tspan x="35" y="0" style="letter-spacing:-0.0037935697115384615em">p</tspan><tspan x="44" y="0" style="letter-spacing:-0.0013146033653846155em">o</tspan><tspan x="52.7" y="0" style="letter-spacing:0.017615685096153848em">r</tspan><tspan x="57.6" y="0" style="letter-spacing:-0.007699819711538462em">t</tspan><tspan x="62.1" y="0" style="letter-spacing:0.00537109375em">a</tspan><tspan x="71.3" y="0" style="letter-spacing:0.005896935096153846em">t</tspan><tspan x="75.9" y="0" style="letter-spacing:-0.001990685096153846em">io</tspan><tspan x="88.3" y="0" style="letter-spacing:-0.002892127403846154em">n</tspan><tspan x="96.4" y="0" style="letter-spacing:-0.02110877403846154em">.</tspan><tspan x="100.2" y="0" style="letter-spacing:-0.0007887620192307692em">g</tspan><tspan x="109.2" y="0" style="letter-spacing:-0.03271484375em">o</tspan><tspan x="117.5" y="0" style="letter-spacing:-0.006009615384615385em">v</tspan></text></svg>