<?xml version="1.0" encoding="UTF-8"?>
<svg width="23px" height="23px" viewBox="0 0 23 23" version="1.1" xmlns="http://www.w3.org/2000/svg" xmlns:xlink="http://www.w3.org/1999/xlink">
    <!-- Generator: Sketch 54.1 (76490) - https://sketchapp.com -->
    <title>facebook_follow_svg</title>
    <desc>Created with Sketch.</desc>
    <g id="facebook_follow_svg" stroke="none" stroke-width="1" fill="none" fill-rule="evenodd">
        <g id="Facebook" fill-rule="nonzero">
            <g>
                <g id="Dark_Blue" fill="#142350">
                    <circle id="Oval" cx="11.5" cy="11.5" r="11.5"></circle>
                </g>
                <g id="facebook25" transform="translate(8.000000, 5.000000)" fill="#FFFFFF">
                    <path d="M4.04797059,4.28808824 L4.04797059,3.18241912 C4.04797059,3.01638235 4.05561765,2.88781618 4.07119853,2.79700735 C4.08697059,2.70619853 4.12186029,2.61672794 4.17672794,2.52840441 C4.23121324,2.44017647 4.31953676,2.37928676 4.44150735,2.34544853 C4.56357353,2.31161029 4.72588235,2.29478676 4.92843382,2.29478676 L6.03419853,2.29478676 L6.03419853,0.0827794118 L4.26610294,0.0827794118 C3.24311765,0.0827794118 2.50852206,0.325573529 2.06202941,0.810875 C1.61563235,1.29646324 1.39233824,2.01146324 1.39233824,2.95644853 L1.39233824,4.28799265 L0.06825,4.28799265 L0.06825,6.5 L1.39214706,6.5 L1.39214706,12.9172206 L4.04797059,12.9172206 L4.04797059,6.5 L5.81577941,6.5 L6.04939706,4.28808824 L4.04797059,4.28808824 L4.04797059,4.28808824 Z" id="Path"></path>
                </g>
            </g>
        </g>
    </g>
</svg>