<?xml version="1.0" encoding="UTF-8"?>
<svg width="285px" height="38px" viewBox="0 0 285 38" version="1.1" xmlns="http://www.w3.org/2000/svg" xmlns:xlink="http://www.w3.org/1999/xlink">
    <!-- Generator: Sketch 54.1 (76490) - https://sketchapp.com -->
    <title>ITS_JPO_logo_white_OL</title>
    <desc>Created with Sketch.</desc>
    <defs>
        <polygon id="path-1" points="0.06 0.844 284.599 0.844 284.599 31.699 0.06 31.699"></polygon>
    </defs>
    <g id="Page-1" stroke="none" stroke-width="1" fill="none" fill-rule="evenodd">
        <g id="ITS_JPO_logo_white_OL">
            <polygon id="Fill-1" fill="#FFFFFE" points="2.569 13.602 5.138 13.602 5.138 0.844 2.569 0.844"></polygon>
            <path d="M7.344,4.137 L9.465,4.137 C9.465,4.55 9.465,4.948 9.448,5.395 C9.861,4.653 10.706,3.826 12.395,3.844 C15.481,3.861 16.068,6.222 16.068,7.895 L16.068,13.602 L13.81,13.602 L13.81,8.465 C13.81,7.049 13.343,5.965 11.758,5.965 C10.154,5.982 9.603,7.049 9.603,8.378 L9.603,13.602 L7.344,13.602 L7.344,4.137" id="Fill-2" fill="#FFFFFE"></path>
            <polyline id="Fill-3" fill="#FFFFFE" points="18.79 5.879 17.221 5.879 17.221 4.137 18.79 4.137 18.79 0.844 21.048 0.844 21.048 4.137 22.669 4.137 22.669 5.879 21.048 5.879 21.048 13.602 18.79 13.602 18.79 5.879"></polyline>
            <path d="M30.529,7.895 C30.443,6.999 29.495,5.74 27.84,5.757 C26.167,5.757 25.254,6.965 25.167,7.895 L30.529,7.895 Z M25.133,9.619 C25.236,11.136 26.581,11.981 27.874,11.964 C28.978,11.964 29.719,11.464 30.149,10.688 L32.477,10.688 C32.029,11.739 31.356,12.533 30.563,13.067 C29.771,13.619 28.84,13.895 27.856,13.895 C24.943,13.895 22.857,11.533 22.857,8.896 C22.857,6.205 24.96,3.844 27.823,3.844 C29.236,3.844 30.477,4.378 31.356,5.292 C32.512,6.481 32.943,7.964 32.753,9.619 L25.133,9.619 L25.133,9.619 Z" id="Fill-4" fill="#FFFFFE"></path>
            <polygon id="Fill-5" fill="#FFFFFE" points="34.372 13.602 36.631 13.602 36.631 0.844 34.372 0.844"></polygon>
            <polygon id="Fill-6" fill="#FFFFFE" points="38.75 13.602 41.008 13.602 41.008 0.844 38.75 0.844"></polygon>
            <path d="M43.128,13.602 L45.386,13.602 L45.386,4.137 L43.128,4.137 L43.128,13.602 Z M43.128,2.861 L45.386,2.861 L45.386,0.844 L43.128,0.844 L43.128,2.861 Z" id="Fill-7" fill="#FFFFFE"></path>
            <path d="M49.264,8.86 C49.264,10.515 50.454,11.774 52.092,11.774 C52.936,11.774 53.609,11.481 54.109,10.964 C54.608,10.465 54.902,9.757 54.919,8.947 C54.919,8.222 54.695,7.465 54.229,6.913 C53.781,6.343 53.075,5.965 52.092,5.965 C50.557,5.965 49.264,7.154 49.264,8.843 L49.264,8.86 Z M57.177,12.481 C57.177,14.032 56.885,15.032 56.298,15.826 C55.488,16.912 53.902,17.773 51.954,17.773 C49.006,17.773 47.592,16.015 47.247,14.55 L49.868,14.55 C50.075,14.981 50.437,15.308 50.851,15.515 C51.316,15.773 51.816,15.842 52.092,15.842 C53.437,15.842 54.902,14.912 54.902,12.998 L54.902,12.206 C54.436,13.05 53.437,13.895 51.833,13.895 C49.109,13.895 47.006,11.825 47.006,8.913 C47.006,5.826 49.213,3.861 51.833,3.861 C53.195,3.861 54.367,4.482 54.902,5.413 L54.902,4.137 L57.177,4.137 L57.177,12.481 L57.177,12.481 Z" id="Fill-8" fill="#FFFFFE"></path>
            <path d="M66.33,7.895 C66.244,6.999 65.295,5.74 63.641,5.757 C61.968,5.757 61.055,6.965 60.968,7.895 L66.33,7.895 Z M60.934,9.619 C61.037,11.136 62.382,11.981 63.675,11.964 C64.778,11.964 65.519,11.464 65.95,10.688 L68.278,10.688 C67.83,11.739 67.158,12.533 66.364,13.067 C65.571,13.619 64.641,13.895 63.657,13.895 C60.744,13.895 58.658,11.533 58.658,8.896 C58.658,6.205 60.761,3.844 63.623,3.844 C65.037,3.844 66.278,4.378 67.158,5.292 C68.312,6.481 68.744,7.964 68.554,9.619 L60.934,9.619 L60.934,9.619 Z" id="Fill-9" fill="#FFFFFE"></path>
            <path d="M70.173,4.137 L72.294,4.137 C72.294,4.55 72.294,4.948 72.275,5.395 C72.689,4.653 73.535,3.826 75.224,3.844 C78.31,3.861 78.895,6.222 78.895,7.895 L78.895,13.602 L76.637,13.602 L76.637,8.465 C76.637,7.049 76.172,5.965 74.586,5.965 C72.983,5.982 72.431,7.049 72.431,8.378 L72.431,13.602 L70.173,13.602 L70.173,4.137" id="Fill-10" fill="#FFFFFE"></path>
            <polyline id="Fill-11" fill="#FFFFFE" points="81.618 5.879 80.049 5.879 80.049 4.137 81.618 4.137 81.618 0.844 83.876 0.844 83.876 4.137 85.497 4.137 85.497 5.879 83.876 5.879 83.876 13.602 81.618 13.602 81.618 5.879"></polyline>
            <polyline id="Fill-12" fill="#FFFFFE" points="92.184 3.103 89.425 3.103 89.425 0.844 97.494 0.844 97.494 3.103 94.752 3.103 94.752 13.602 92.184 13.602 92.184 3.103"></polyline>
            <path d="M97.941,4.137 L100.079,4.137 L100.079,5.378 C100.492,4.533 101.268,3.861 102.699,3.844 L102.699,6.119 L102.596,6.119 C101.01,6.119 100.199,6.86 100.199,8.499 L100.199,13.602 L97.941,13.602 L97.941,4.137" id="Fill-13" fill="#FFFFFE"></path>
            <path d="M105.181,8.913 C105.181,10.084 106.025,11.792 108.06,11.792 C109.318,11.792 110.146,11.136 110.577,10.275 C110.801,9.86 110.905,9.412 110.938,8.947 C110.957,8.499 110.87,8.033 110.681,7.62 C110.284,6.723 109.405,5.946 108.042,5.946 C106.215,5.946 105.181,7.43 105.181,8.896 L105.181,8.913 Z M113.18,13.602 L110.922,13.602 L110.922,12.24 C110.318,13.343 109.06,13.895 107.732,13.895 C104.698,13.895 102.922,11.533 102.922,8.86 C102.922,5.879 105.078,3.844 107.732,3.844 C109.456,3.844 110.508,4.758 110.922,5.516 L110.922,4.137 L113.18,4.137 L113.18,13.602 L113.18,13.602 Z" id="Fill-14" fill="#FFFFFE"></path>
            <path d="M115.316,4.137 L117.437,4.137 C117.437,4.55 117.437,4.948 117.419,5.395 C117.833,4.653 118.678,3.826 120.367,3.844 C123.453,3.861 124.04,6.222 124.04,7.895 L124.04,13.602 L121.78,13.602 L121.78,8.465 C121.78,7.049 121.315,5.965 119.729,5.965 C118.126,5.982 117.574,7.049 117.574,8.378 L117.574,13.602 L115.316,13.602 L115.316,4.137" id="Fill-15" fill="#FFFFFE"></path>
            <path d="M130.244,6.689 C130.227,6.188 129.968,5.671 129.088,5.671 C128.33,5.671 127.967,6.154 127.967,6.62 C127.985,7.222 128.675,7.55 129.571,7.809 C131.088,8.222 132.726,8.671 132.743,10.705 C132.778,12.653 131.14,13.895 129.158,13.895 C127.692,13.895 125.709,13.136 125.538,10.843 L127.795,10.843 C127.882,11.861 128.761,12.067 129.192,12.067 C129.899,12.067 130.502,11.601 130.485,10.964 C130.485,10.153 129.778,9.929 128.037,9.326 C126.761,8.929 125.727,8.222 125.709,6.86 C125.709,4.999 127.278,3.844 129.106,3.844 C130.381,3.844 132.278,4.413 132.467,6.689 L130.244,6.689" id="Fill-16" fill="#FFFFFE"></path>
            <path d="M142.241,8.86 C142.241,7.498 141.258,5.946 139.345,5.946 C138.517,5.946 137.81,6.274 137.293,6.809 C136.793,7.326 136.483,8.068 136.483,8.896 C136.483,9.705 136.793,10.429 137.311,10.947 C137.828,11.464 138.552,11.792 139.362,11.792 C141.086,11.792 142.241,10.429 142.241,8.878 L142.241,8.86 Z M134.329,4.137 L136.449,4.137 L136.449,5.516 C137.121,4.567 138.224,3.844 139.793,3.844 C143.103,3.844 144.5,6.654 144.5,8.947 C144.5,11.635 142.585,13.895 139.81,13.895 C137.965,13.895 136.965,12.947 136.586,12.343 L136.586,16.912 L134.329,16.912 L134.329,4.137 L134.329,4.137 Z" id="Fill-17" fill="#FFFFFE"></path>
            <path d="M147.911,8.878 C147.911,10.532 149.169,11.758 150.72,11.758 C152.272,11.758 153.513,10.532 153.513,8.86 C153.513,7.188 152.272,5.965 150.72,5.965 C149.169,5.965 147.911,7.188 147.911,8.86 L147.911,8.878 Z M145.652,8.843 C145.652,6.43 147.428,3.861 150.72,3.861 C154.014,3.861 155.79,6.43 155.79,8.86 C155.79,11.309 154.014,13.878 150.72,13.878 C147.428,13.878 145.652,11.309 145.652,8.86 L145.652,8.843 L145.652,8.843 Z" id="Fill-18" fill="#FFFFFE"></path>
            <path d="M157.408,4.137 L159.546,4.137 L159.546,5.378 C159.959,4.533 160.735,3.861 162.166,3.844 L162.166,6.119 L162.062,6.119 C160.477,6.119 159.667,6.86 159.667,8.499 L159.667,13.602 L157.408,13.602 L157.408,4.137" id="Fill-19" fill="#FFFFFE"></path>
            <polyline id="Fill-20" fill="#FFFFFE" points="164.337 5.879 162.768 5.879 162.768 4.137 164.337 4.137 164.337 0.844 166.595 0.844 166.595 4.137 168.215 4.137 168.215 5.879 166.595 5.879 166.595 13.602 164.337 13.602 164.337 5.879"></polyline>
            <path d="M170.767,8.913 C170.767,10.084 171.612,11.792 173.645,11.792 C174.905,11.792 175.732,11.136 176.163,10.275 C176.387,9.86 176.49,9.412 176.525,8.947 C176.542,8.499 176.457,8.033 176.266,7.62 C175.87,6.723 174.991,5.946 173.628,5.946 C171.801,5.946 170.767,7.43 170.767,8.896 L170.767,8.913 Z M178.766,13.602 L176.507,13.602 L176.507,12.24 C175.905,13.343 174.646,13.895 173.318,13.895 C170.284,13.895 168.508,11.533 168.508,8.86 C168.508,5.879 170.664,3.844 173.318,3.844 C175.042,3.844 176.094,4.758 176.507,5.516 L176.507,4.137 L178.766,4.137 L178.766,13.602 L178.766,13.602 Z" id="Fill-21" fill="#FFFFFE"></path>
            <polyline id="Fill-22" fill="#FFFFFE" points="181.522 5.879 179.954 5.879 179.954 4.137 181.522 4.137 181.522 0.844 183.782 0.844 183.782 4.137 185.401 4.137 185.401 5.879 183.782 5.879 183.782 13.602 181.522 13.602 181.522 5.879"></polyline>
            <path d="M186.608,13.602 L188.866,13.602 L188.866,4.137 L186.608,4.137 L186.608,13.602 Z M186.608,2.861 L188.866,2.861 L188.866,0.844 L186.608,0.844 L186.608,2.861 Z" id="Fill-23" fill="#FFFFFE"></path>
            <path d="M192.744,8.878 C192.744,10.532 194.002,11.758 195.553,11.758 C197.105,11.758 198.347,10.532 198.347,8.86 C198.347,7.188 197.105,5.965 195.553,5.965 C194.002,5.965 192.744,7.188 192.744,8.86 L192.744,8.878 Z M190.485,8.843 C190.485,6.43 192.261,3.861 195.553,3.861 C198.846,3.861 200.623,6.43 200.623,8.86 C200.623,11.309 198.846,13.878 195.553,13.878 C192.261,13.878 190.485,11.309 190.485,8.86 L190.485,8.843 L190.485,8.843 Z" id="Fill-24" fill="#FFFFFE"></path>
            <path d="M202.258,4.137 L204.378,4.137 C204.378,4.55 204.378,4.948 204.362,5.395 C204.775,4.653 205.62,3.826 207.309,3.844 C210.395,3.861 210.982,6.222 210.982,7.895 L210.982,13.602 L208.723,13.602 L208.723,8.465 C208.723,7.049 208.257,5.965 206.671,5.965 C205.068,5.982 204.516,7.049 204.516,8.378 L204.516,13.602 L202.258,13.602 L202.258,4.137" id="Fill-25" fill="#FFFFFE"></path>
            <path d="M220.116,9.637 C220.202,11.36 221.357,11.688 221.909,11.688 C222.891,11.688 223.65,10.894 223.65,9.999 C223.65,8.913 222.737,8.636 220.959,7.929 C219.996,7.585 217.772,6.793 217.772,4.378 C217.772,1.93 219.926,0.602 221.996,0.602 C223.684,0.602 225.925,1.499 226.03,4.327 L223.495,4.327 C223.391,3.74 223.167,2.758 221.909,2.758 C221.065,2.758 220.34,3.343 220.34,4.207 C220.322,5.154 221.012,5.395 223.167,6.292 C225.116,7.136 226.201,8.068 226.201,9.878 C226.201,11.93 224.943,13.842 221.943,13.842 C219.047,13.842 217.546,12.101 217.564,9.637 L220.116,9.637" id="Fill-26" fill="#FFFFFE"></path>
            <polyline id="Fill-27" fill="#FFFFFE" points="230.216 13.24 226.648 4.137 229.061 4.137 231.371 10.429 233.647 4.137 236.06 4.137 231.079 16.912 228.665 16.912 230.216 13.24"></polyline>
            <path d="M241.197,6.689 C241.179,6.188 240.92,5.671 240.042,5.671 C239.283,5.671 238.92,6.154 238.92,6.62 C238.939,7.222 239.627,7.55 240.525,7.809 C242.041,8.222 243.679,8.671 243.696,10.705 C243.731,12.653 242.093,13.895 240.11,13.895 C238.645,13.895 236.663,13.136 236.49,10.843 L238.75,10.843 C238.835,11.861 239.714,12.067 240.145,12.067 C240.851,12.067 241.456,11.601 241.438,10.964 C241.438,10.153 240.731,9.929 238.99,9.326 C237.713,8.929 236.68,8.222 236.663,6.86 C236.663,4.999 238.232,3.844 240.059,3.844 C241.335,3.844 243.231,4.413 243.42,6.689 L241.197,6.689" id="Fill-28" fill="#FFFFFE"></path>
            <polyline id="Fill-29" fill="#FFFFFE" points="245.901 5.879 244.333 5.879 244.333 4.137 245.901 4.137 245.901 0.844 248.161 0.844 248.161 4.137 249.782 4.137 249.782 5.879 248.161 5.879 248.161 13.602 245.901 13.602 245.901 5.879"></polyline>
            <path d="M257.64,7.895 C257.555,6.999 256.607,5.74 254.952,5.757 C253.28,5.757 252.366,6.965 252.28,7.895 L257.64,7.895 Z M252.246,9.619 C252.349,11.136 253.694,11.981 254.987,11.964 C256.09,11.964 256.832,11.464 257.261,10.688 L259.589,10.688 C259.141,11.739 258.469,12.533 257.676,13.067 C256.882,13.619 255.952,13.895 254.968,13.895 C252.056,13.895 249.969,11.533 249.969,8.896 C249.969,6.205 252.073,3.844 254.934,3.844 C256.347,3.844 257.589,4.378 258.469,5.292 C259.624,6.481 260.055,7.964 259.866,9.619 L252.246,9.619 L252.246,9.619 Z" id="Fill-30" fill="#FFFFFE"></path>
            <g id="Group-35" transform="translate(0.000000, 3.000000)">
                <mask id="mask-2" fill="white">
                    <use xlink:href="#path-1"></use>
                </mask>
                <g id="Clip-32"></g>
                <path d="M261.484,1.137 L263.604,1.137 L263.604,2.327 C263.811,1.895 264.724,0.844 266.363,0.844 C267.138,0.844 268,1.068 268.69,1.809 C268.897,2.034 269.138,2.43 269.259,2.671 C269.431,2.378 269.639,2.068 269.949,1.775 C270.534,1.223 271.362,0.844 272.362,0.844 C273.155,0.844 274.156,1.05 274.879,1.792 C275.741,2.689 275.914,3.465 275.914,5.412 L275.914,10.602 L273.655,10.602 L273.655,5.499 C273.655,4.895 273.604,4.241 273.276,3.74 C273.035,3.274 272.586,2.965 271.793,2.965 C271,2.965 270.448,3.308 270.155,3.826 C269.862,4.344 269.829,4.843 269.829,5.412 L269.829,10.602 L267.569,10.602 L267.569,5.412 C267.569,4.86 267.518,4.326 267.277,3.843 C267,3.343 266.536,2.982 265.725,2.965 C264.897,2.965 264.379,3.361 264.105,3.843 C263.828,4.344 263.743,4.929 263.743,5.481 L263.743,10.602 L261.484,10.602 L261.484,1.137" id="Fill-31" fill="#FFFFFE" mask="url(#mask-2)"></path>
                <path d="M282.099,3.689 C282.083,3.188 281.824,2.671 280.945,2.671 C280.185,2.671 279.825,3.154 279.825,3.62 C279.842,4.222 280.531,4.55 281.427,4.809 C282.944,5.222 284.582,5.671 284.599,7.705 C284.634,9.653 282.997,10.895 281.013,10.895 C279.549,10.895 277.566,10.136 277.393,7.843 L279.652,7.843 C279.739,8.861 280.617,9.067 281.048,9.067 C281.755,9.067 282.358,8.601 282.341,7.964 C282.341,7.153 281.634,6.929 279.893,6.326 C278.617,5.929 277.583,5.222 277.566,3.86 C277.566,1.999 279.134,0.844 280.962,0.844 C282.238,0.844 284.133,1.413 284.323,3.689 L282.099,3.689" id="Fill-33" fill="#FFFFFE" mask="url(#mask-2)"></path>
                <path d="M6.819,27.544 C6.819,28.688 6.717,29.369 6.486,29.903 C6.269,30.353 5.849,30.816 5.414,31.091 C4.792,31.51 4.053,31.699 3.373,31.699 C2.91,31.699 0.521,31.54 0.072,29.107 C0.029,28.89 0.014,28.644 0,28.398 L2.301,28.398 C2.301,28.5 2.316,28.587 2.331,28.688 C2.49,29.383 2.925,29.803 3.474,29.803 C4.068,29.788 4.387,29.469 4.517,29.107 C4.647,28.774 4.662,28.398 4.662,28.064 L4.662,20.784 L6.819,20.784 L6.819,27.544" id="Fill-34" fill="#FFFFFE" mask="url(#mask-2)"></path>
            </g>
            <path d="M9.95,30.53 C9.95,31.919 11.006,32.947 12.31,32.947 C13.612,32.947 14.655,31.919 14.655,30.515 C14.655,29.111 13.612,28.083 12.31,28.083 C11.006,28.083 9.95,29.111 9.95,30.515 L9.95,30.53 Z M8.053,30.5 C8.053,28.474 9.544,26.317 12.31,26.317 C15.075,26.317 16.566,28.474 16.566,30.515 C16.566,32.571 15.075,34.728 12.31,34.728 C9.544,34.728 8.053,32.571 8.053,30.515 L8.053,30.5 L8.053,30.5 Z" id="Fill-36" fill="#FFFFFE"></path>
            <path d="M17.946,34.496 L19.842,34.496 L19.842,26.548 L17.946,26.548 L17.946,34.496 Z M17.946,25.477 L19.842,25.477 L19.842,23.784 L17.946,23.784 L17.946,25.477 Z" id="Fill-37" fill="#FFFFFE"></path>
            <path d="M21.625,26.548 L23.406,26.548 C23.406,26.896 23.406,27.228 23.392,27.604 C23.739,26.982 24.448,26.288 25.867,26.301 C28.458,26.317 28.951,28.3 28.951,29.704 L28.951,34.496 L27.054,34.496 L27.054,30.181 C27.054,28.995 26.664,28.083 25.331,28.083 C23.985,28.096 23.522,28.995 23.522,30.11 L23.522,34.496 L21.625,34.496 L21.625,26.548" id="Fill-38" fill="#FFFFFE"></path>
            <polyline id="Fill-39" fill="#FFFFFE" points="31.242 28.01 29.925 28.01 29.925 26.548 31.242 26.548 31.242 23.784 33.139 23.784 33.139 26.548 34.5 26.548 34.5 28.01 33.139 28.01 33.139 34.496 31.242 34.496 31.242 28.01"></polyline>
            <path d="M41.975,28.923 L43.249,28.923 C43.741,28.923 44.219,28.879 44.653,28.647 C45.044,28.445 45.362,27.967 45.362,27.286 C45.362,26.606 45.044,26.158 44.624,25.955 C44.19,25.723 43.697,25.679 43.162,25.679 L41.975,25.679 L41.975,28.923 Z M43.061,23.784 C44.87,23.784 45.594,24.044 46.217,24.522 C46.998,25.159 47.433,26.201 47.433,27.258 C47.433,28.314 46.984,29.415 46.304,29.966 C45.58,30.558 44.856,30.82 43.292,30.82 L41.975,30.82 L41.975,34.496 L39.818,34.496 L39.818,23.784 L43.061,23.784 L43.061,23.784 Z" id="Fill-40" fill="#FFFFFE"></path>
            <path d="M48.451,26.548 L50.246,26.548 L50.246,27.591 C50.593,26.882 51.245,26.317 52.446,26.301 L52.446,28.213 L52.359,28.213 C51.028,28.213 50.347,28.836 50.347,30.212 L50.347,34.496 L48.451,34.496 L48.451,26.548" id="Fill-41" fill="#FFFFFE"></path>
            <path d="M54.534,30.53 C54.534,31.919 55.59,32.947 56.894,32.947 C58.197,32.947 59.238,31.919 59.238,30.515 C59.238,29.111 58.197,28.083 56.894,28.083 C55.59,28.083 54.534,29.111 54.534,30.515 L54.534,30.53 Z M52.637,30.5 C52.637,28.474 54.128,26.317 56.894,26.317 C59.659,26.317 61.149,28.474 61.149,30.515 C61.149,32.571 59.659,34.728 56.894,34.728 C54.128,34.728 52.637,32.571 52.637,30.515 L52.637,30.5 L52.637,30.5 Z" id="Fill-42" fill="#FFFFFE"></path>
            <path d="M64.007,30.515 C64.007,31.905 65.005,32.962 66.381,32.962 C67.09,32.962 67.655,32.716 68.075,32.281 C68.495,31.861 68.741,31.268 68.755,30.588 C68.755,29.979 68.566,29.343 68.176,28.879 C67.8,28.401 67.206,28.083 66.381,28.083 C65.092,28.083 64.007,29.082 64.007,30.5 L64.007,30.515 Z M70.652,33.555 C70.652,34.858 70.405,35.697 69.913,36.363 C69.233,37.276 67.901,38 66.265,38 C63.79,38 62.602,36.523 62.313,35.293 L64.513,35.293 C64.687,35.655 64.991,35.929 65.338,36.103 C65.729,36.321 66.149,36.379 66.381,36.379 C67.51,36.379 68.741,35.596 68.741,33.99 L68.741,33.324 C68.35,34.034 67.51,34.742 66.164,34.742 C63.876,34.742 62.11,33.006 62.11,30.558 C62.11,27.967 63.963,26.317 66.164,26.317 C67.308,26.317 68.292,26.838 68.741,27.62 L68.741,26.548 L70.652,26.548 L70.652,33.555 L70.652,33.555 Z" id="Fill-43" fill="#FFFFFE"></path>
            <path d="M72.394,26.548 L74.189,26.548 L74.189,27.591 C74.537,26.882 75.188,26.317 76.39,26.301 L76.39,28.213 L76.303,28.213 C74.971,28.213 74.29,28.836 74.29,30.212 L74.29,34.496 L72.394,34.496 L72.394,26.548" id="Fill-44" fill="#FFFFFE"></path>
            <path d="M78.477,30.558 C78.477,31.543 79.186,32.975 80.894,32.975 C81.952,32.975 82.646,32.426 83.008,31.703 C83.197,31.354 83.284,30.978 83.313,30.588 C83.327,30.212 83.254,29.82 83.095,29.473 C82.762,28.72 82.024,28.068 80.88,28.068 C79.345,28.068 78.477,29.313 78.477,30.544 L78.477,30.558 Z M85.195,34.496 L83.298,34.496 L83.298,33.353 C82.791,34.28 81.734,34.742 80.619,34.742 C78.072,34.742 76.581,32.759 76.581,30.515 C76.581,28.01 78.39,26.301 80.619,26.301 C82.067,26.301 82.95,27.07 83.298,27.707 L83.298,26.548 L85.195,26.548 L85.195,34.496 L85.195,34.496 Z" id="Fill-45" fill="#FFFFFE"></path>
            <path d="M86.995,26.548 L88.775,26.548 L88.775,27.547 C88.95,27.186 89.717,26.301 91.092,26.301 C91.743,26.301 92.467,26.49 93.046,27.114 C93.22,27.301 93.423,27.634 93.524,27.837 C93.669,27.591 93.842,27.33 94.103,27.084 C94.596,26.622 95.29,26.301 96.13,26.301 C96.796,26.301 97.636,26.475 98.244,27.098 C98.967,27.85 99.112,28.503 99.112,30.138 L99.112,34.496 L97.215,34.496 L97.215,30.212 C97.215,29.704 97.172,29.155 96.897,28.735 C96.694,28.342 96.318,28.083 95.652,28.083 C94.986,28.083 94.523,28.373 94.277,28.807 C94.031,29.241 94.001,29.661 94.001,30.138 L94.001,34.496 L92.105,34.496 L92.105,30.138 C92.105,29.675 92.061,29.227 91.859,28.821 C91.627,28.401 91.237,28.096 90.557,28.083 C89.861,28.083 89.427,28.417 89.196,28.821 C88.964,29.241 88.892,29.733 88.892,30.196 L88.892,34.496 L86.995,34.496 L86.995,26.548" id="Fill-46" fill="#FFFFFE"></path>
            <path d="M106.896,29.139 C106.896,31.094 108.3,32.803 110.385,32.803 C112.557,32.803 113.831,30.921 113.831,29.155 C113.831,27.358 112.557,25.477 110.371,25.477 C108.228,25.477 106.896,27.244 106.896,29.125 L106.896,29.139 Z M104.739,29.227 C104.739,25.796 107.374,23.58 110.356,23.58 C113.599,23.58 115.988,26.099 115.988,29.139 C115.988,32.18 113.613,34.699 110.342,34.699 C107.055,34.699 104.739,32.107 104.739,29.241 L104.739,29.227 L104.739,29.227 Z" id="Fill-47" fill="#FFFFFE"></path>
            <path d="M117.5,28.01 L116.516,28.01 L116.516,26.548 L117.5,26.548 L117.5,26.099 C117.5,23.74 119.295,23.595 120.656,23.58 L120.656,25.043 C120.178,25.043 119.396,25.043 119.396,26.158 L119.396,26.548 L120.656,26.548 L120.656,28.01 L119.396,28.01 L119.396,34.496 L117.5,34.496 L117.5,28.01" id="Fill-48" fill="#FFFFFE"></path>
            <path d="M125.638,25.477 L127.535,25.477 L127.535,23.784 L125.638,23.784 L125.638,25.477 Z M123.481,28.01 L123.481,34.496 L121.584,34.496 L121.584,28.01 L120.601,28.01 L120.601,26.548 L121.584,26.548 L121.584,26.099 C121.584,23.74 123.38,23.595 124.741,23.58 L124.741,25.043 C124.263,25.043 123.481,25.043 123.481,26.158 L123.481,26.548 L127.535,26.548 L127.535,34.496 L125.638,34.496 L125.638,28.01 L123.481,28.01 L123.481,28.01 Z" id="Fill-49" fill="#FFFFFE"></path>
            <path d="M137.239,31.6 C136.791,33.367 135.212,34.742 133.156,34.742 C130.637,34.742 128.9,32.788 128.9,30.515 C128.9,28.171 130.709,26.301 133.084,26.301 C135.082,26.301 136.775,27.562 137.239,29.502 L135.298,29.502 C134.966,28.663 134.199,28.068 133.156,28.068 C132.461,28.054 131.925,28.3 131.462,28.749 C131.057,29.183 130.811,29.82 130.811,30.515 C130.811,31.949 131.809,32.962 133.156,32.962 C134.343,32.962 135.009,32.253 135.298,31.6 L137.239,31.6" id="Fill-50" fill="#FFFFFE"></path>
            <path d="M144.511,29.704 C144.439,28.951 143.642,27.894 142.252,27.909 C140.848,27.909 140.082,28.923 140.009,29.704 L144.511,29.704 Z M139.98,31.152 C140.067,32.426 141.196,33.135 142.282,33.121 C143.208,33.121 143.832,32.701 144.193,32.049 L146.147,32.049 C145.77,32.933 145.206,33.599 144.541,34.048 C143.875,34.51 143.092,34.742 142.267,34.742 C139.821,34.742 138.069,32.759 138.069,30.544 C138.069,28.285 139.835,26.301 142.239,26.301 C143.425,26.301 144.467,26.752 145.206,27.518 C146.175,28.517 146.538,29.761 146.378,31.152 L139.98,31.152 L139.98,31.152 Z" id="Fill-51" fill="#FFFFFE"></path>
        </g>
    </g>
</svg>