<?xml version="1.0" encoding="UTF-8"?>
<svg width="23px" height="23px" viewBox="0 0 23 23" version="1.1" xmlns="http://www.w3.org/2000/svg" xmlns:xlink="http://www.w3.org/1999/xlink">
    <!-- Generator: Sketch 54.1 (76490) - https://sketchapp.com -->
    <title>twitter_follow_svg</title>
    <desc>Created with Sketch.</desc>
    <g id="twitter_follow_svg" stroke="none" stroke-width="1" fill="none" fill-rule="evenodd">
        <g id="Dark_Blue" fill="#142350" fill-rule="nonzero">
            <circle id="Oval" cx="11.5" cy="11.5" r="11.5"></circle>
        </g>
        <g id="Logo__x2014__FIXED" transform="translate(6.000000, 7.000000)" fill="#FFFFFF" fill-rule="nonzero">
            <path d="M3.88260467,10.1474181 C8.51146265,10.1474181 11.0424617,6.25271715 11.0424617,2.87730967 C11.0424617,2.7660325 11.0424617,2.65475533 11.0372431,2.54877708 C11.5277872,2.188451 11.9557087,1.73804341 12.2949148,1.22404887 C11.8461191,1.42540755 11.3607935,1.56317929 10.8493751,1.62676624 C11.3712306,1.30883147 11.7678408,0.810733664 11.9557087,0.211956514 C11.4703831,0.50339672 10.932872,0.715353233 10.358831,0.831929316 C9.89959819,0.333831509 9.24727886,0.0264945642 8.52189976,0.0264945642 C7.13376422,0.0264945642 6.00655641,1.17105974 6.00655641,2.58057055 C6.00655641,2.78192924 6.02743063,2.97798902 6.07439763,3.16345097 C3.98175721,3.05747271 2.1291703,2.04008144 0.887154292,0.492798894 C0.673193551,0.869021706 0.547948239,1.30883147 0.547948239,1.7751358 C0.547948239,2.66005425 0.991525386,3.44429335 1.66993749,3.89999985 C1.25767167,3.88940202 0.871498628,3.77282594 0.532292575,3.58206508 C0.532292575,3.59266291 0.532292575,3.60326073 0.532292575,3.61385856 C0.532292575,4.85380416 1.39857265,5.88179325 2.55187323,6.12024433 C2.34313104,6.17853237 2.11873319,6.21032585 1.88911679,6.21032585 C1.72734159,6.21032585 1.57078495,6.19442911 1.41422831,6.16263563 C1.73256015,7.1800269 2.66146288,7.91657578 3.76257791,7.93777143 C2.90151639,8.62133119 1.81605702,9.02934748 0.636663669,9.02934748 C0.433140037,9.02934748 0.23483496,9.01874965 0.0365298826,8.99225509 C1.13764492,9.72350506 2.4631578,10.1474181 3.88260467,10.1474181" id="Path"></path>
        </g>
    </g>
</svg>